<svg width="23" height="23" viewBox="0 0 23 23" fill="none" xmlns="http://www.w3.org/2000/svg">
<rect x="3.91956" width="19.4789" height="19.4789" rx="6" transform="rotate(11.6083 3.91956 0)" fill="url(#paint0_linear)"/>
<g filter="url(#filter0_b)">
<rect x="0.137329" y="4.64124" width="18.6673" height="18.6673" rx="3" transform="rotate(-13.9617 0.137329 4.64124)" fill="url(#paint1_radial)"/>
</g>
<path fill-rule="evenodd" clip-rule="evenodd" d="M11.5001 6.63028C11.0518 6.63028 10.6885 6.99365 10.6885 7.4419V10.6884H7.44193C6.99368 10.6884 6.63031 11.0517 6.63031 11.5C6.63031 11.9482 6.99368 12.3116 7.44193 12.3116H10.6885V15.5581C10.6885 16.0063 11.0518 16.3697 11.5001 16.3697C11.9483 16.3697 12.3117 16.0063 12.3117 15.5581V12.3116H15.5581C16.0064 12.3116 16.3697 11.9482 16.3697 11.5C16.3697 11.0517 16.0064 10.6884 15.5581 10.6884H12.3117V7.4419C12.3117 6.99365 11.9483 6.63028 11.5001 6.63028Z" fill="url(#paint2_linear)"/>
<defs>
<filter id="filter0_b" x="-3.86267" y="-3.86267" width="30.6197" height="30.6197" filterUnits="userSpaceOnUse" color-interpolation-filters="sRGB">
<feFlood flood-opacity="0" result="BackgroundImageFix"/>
<feGaussianBlur in="BackgroundImage" stdDeviation="2"/>
<feComposite in2="SourceAlpha" operator="in" result="effect1_backgroundBlur"/>
<feBlend mode="normal" in="SourceGraphic" in2="effect1_backgroundBlur" result="shape"/>
</filter>
<linearGradient id="paint0_linear" x1="3.91956" y1="2.84067" x2="26.2391" y2="23.9428" gradientUnits="userSpaceOnUse">
<stop stop-color="#6116FF"/>
<stop offset="1" stop-color="#6116FF" stop-opacity="0.37"/>
</linearGradient>
<radialGradient id="paint1_radial" cx="0" cy="0" r="1" gradientUnits="userSpaceOnUse" gradientTransform="translate(2.35962 13.9749) rotate(34.4027) scale(24.7793 36.9698)">
<stop stop-color="#DCDCDC" stop-opacity="0.15"/>
<stop offset="0.477411" stop-color="#EFEFEF" stop-opacity="0.383804"/>
<stop offset="1" stop-color="white" stop-opacity="0.59"/>
</radialGradient>
<linearGradient id="paint2_linear" x1="6.63031" y1="14.7465" x2="17.993" y2="5.41285" gradientUnits="userSpaceOnUse">
<stop stop-color="#F8F1F1"/>
<stop offset="1" stop-color="#F8F1F1" stop-opacity="0.07"/>
</linearGradient>
</defs>
</svg>
