<svg width="27" height="27" viewBox="0 0 27 27" fill="none" xmlns="http://www.w3.org/2000/svg">
<rect y="6.5137" width="21" height="21" rx="5" transform="rotate(-18.0698 0 6.5137)" fill="url(#paint0_linear)"/>
<g filter="url(#filter0_b)">
<rect x="7" y="6" width="19" height="19" rx="3" fill="url(#paint1_radial)"/>
</g>
<path d="M11.6968 12.8032C12.1326 12.3674 12.8452 12.3884 13.2546 12.8489L14.9256 14.7288C15.7797 15.6897 17.2666 15.7334 18.1757 14.8243C18.3897 14.6103 18.558 14.3551 18.6703 14.0742L19.1718 12.8205C19.362 12.345 19.8644 12.0729 20.3665 12.1733C21.1281 12.3256 21.4742 13.217 21.0149 13.8433L18.9599 16.6456C17.7058 18.3557 15.1829 18.4434 13.8131 16.8246L11.6366 14.2523C11.2768 13.8271 11.303 13.197 11.6968 12.8032Z" fill="url(#paint2_linear)"/>
<defs>
<filter id="filter0_b" x="3" y="2" width="27" height="27" filterUnits="userSpaceOnUse" color-interpolation-filters="sRGB">
<feFlood flood-opacity="0" result="BackgroundImageFix"/>
<feGaussianBlur in="BackgroundImage" stdDeviation="2"/>
<feComposite in2="SourceAlpha" operator="in" result="effect1_backgroundBlur"/>
<feBlend mode="normal" in="SourceGraphic" in2="effect1_backgroundBlur" result="shape"/>
</filter>
<linearGradient id="paint0_linear" x1="5" y1="12.0137" x2="27" y2="30.5137" gradientUnits="userSpaceOnUse">
<stop stop-color="#C4C4C4"/>
<stop offset="1" stop-color="#555555"/>
</linearGradient>
<radialGradient id="paint1_radial" cx="0" cy="0" r="1" gradientUnits="userSpaceOnUse" gradientTransform="translate(9.2619 15.5) rotate(34.4027) scale(25.221 37.6288)">
<stop stop-color="#DCDCDC" stop-opacity="0.15"/>
<stop offset="0.477411" stop-color="#EFEFEF" stop-opacity="0.383804"/>
<stop offset="1" stop-color="white" stop-opacity="0.59"/>
</radialGradient>
<linearGradient id="paint2_linear" x1="13" y1="9.50001" x2="31.5" y2="22.5" gradientUnits="userSpaceOnUse">
<stop stop-color="white" stop-opacity="0.71"/>
<stop offset="1" stop-color="white" stop-opacity="0"/>
</linearGradient>
</defs>
</svg>
