<svg width="24" height="24" viewBox="0 0 24 24" fill="none" xmlns="http://www.w3.org/2000/svg">
<path d="M1.47468 9.10924C0.736481 6.55165 2.6558 4 5.3178 4H16.8442C19.4567 4 21.368 6.46353 20.7187 8.99405L19.1794 14.994C18.7255 16.763 17.1311 18 15.3049 18H7.04958C5.26765 18 3.7006 16.8213 3.20646 15.1092L1.47468 9.10924Z" fill="url(#paint0_linear)"/>
<circle cx="7.5" cy="21.5" r="2.5" fill="url(#paint1_linear)"/>
<circle cx="14.5" cy="21.5" r="2.5" fill="url(#paint2_linear)"/>
<g filter="url(#filter0_b)">
<rect x="13" width="11" height="11" rx="5.5" fill="url(#paint3_linear)" fill-opacity="0.24"/>
</g>
<defs>
<filter id="filter0_b" x="8" y="-5" width="21" height="21" filterUnits="userSpaceOnUse" color-interpolation-filters="sRGB">
<feFlood flood-opacity="0" result="BackgroundImageFix"/>
<feGaussianBlur in="BackgroundImage" stdDeviation="2.5"/>
<feComposite in2="SourceAlpha" operator="in" result="effect1_backgroundBlur"/>
<feBlend mode="normal" in="SourceGraphic" in2="effect1_backgroundBlur" result="shape"/>
</filter>
<linearGradient id="paint0_linear" x1="11" y1="4" x2="11" y2="18" gradientUnits="userSpaceOnUse">
<stop stop-color="#FFB979"/>
<stop offset="1" stop-color="#D37A28"/>
</linearGradient>
<linearGradient id="paint1_linear" x1="7.5" y1="19" x2="7.5" y2="24" gradientUnits="userSpaceOnUse">
<stop stop-color="#FFB979"/>
<stop offset="1" stop-color="#D37A28"/>
</linearGradient>
<linearGradient id="paint2_linear" x1="14.5" y1="19" x2="14.5" y2="24" gradientUnits="userSpaceOnUse">
<stop stop-color="#FFB979"/>
<stop offset="1" stop-color="#D37A28"/>
</linearGradient>
<linearGradient id="paint3_linear" x1="13" y1="0.52381" x2="22.6905" y2="11" gradientUnits="userSpaceOnUse">
<stop stop-color="#DCDCDC" stop-opacity="0.15"/>
<stop offset="1" stop-color="white"/>
</linearGradient>
</defs>
</svg>
