<svg width="28" height="27" viewBox="0 0 28 27" fill="none" xmlns="http://www.w3.org/2000/svg">
<rect x="0.375977" y="3.92636" width="21" height="21" rx="4" transform="rotate(-9.73359 0.375977 3.92636)" fill="url(#paint0_linear)"/>
<g filter="url(#filter0_b)">
<rect x="6.62402" y="5.62405" width="21" height="21" rx="3" fill="url(#paint1_radial)"/>
</g>
<rect x="11" y="10" width="3" height="3" rx="1" fill="url(#paint2_linear)"/>
<rect x="11" y="14" width="3" height="3" rx="1" fill="url(#paint3_linear)"/>
<rect x="11" y="18" width="3" height="3" rx="1" fill="url(#paint4_linear)"/>
<rect x="21" y="10" width="3" height="3" rx="1" fill="url(#paint5_linear)"/>
<rect x="21" y="14" width="3" height="3" rx="1" fill="url(#paint6_linear)"/>
<rect x="21" y="18" width="3" height="3" rx="1" fill="url(#paint7_linear)"/>
<rect x="16" y="10" width="3" height="3" rx="1" fill="url(#paint8_linear)"/>
<rect x="16" y="14" width="3" height="3" rx="1" fill="url(#paint9_linear)"/>
<rect x="16" y="18" width="3" height="3" rx="1" fill="url(#paint10_linear)"/>
<defs>
<filter id="filter0_b" x="2.62402" y="1.62405" width="29" height="29" filterUnits="userSpaceOnUse" color-interpolation-filters="sRGB">
<feFlood flood-opacity="0" result="BackgroundImageFix"/>
<feGaussianBlur in="BackgroundImage" stdDeviation="2"/>
<feComposite in2="SourceAlpha" operator="in" result="effect1_backgroundBlur"/>
<feBlend mode="normal" in="SourceGraphic" in2="effect1_backgroundBlur" result="shape"/>
</filter>
<linearGradient id="paint0_linear" x1="-7.12402" y1="0.426361" x2="24.876" y2="27.4264" gradientUnits="userSpaceOnUse">
<stop stop-color="#58F371"/>
<stop offset="1" stop-color="#0A8408" stop-opacity="0.71"/>
</linearGradient>
<radialGradient id="paint1_radial" cx="0" cy="0" r="1" gradientUnits="userSpaceOnUse" gradientTransform="translate(9.12402 16.1241) rotate(34.4027) scale(27.8758 41.5897)">
<stop stop-color="#DCDCDC" stop-opacity="0.15"/>
<stop offset="0.477411" stop-color="#EFEFEF" stop-opacity="0.383804"/>
<stop offset="1" stop-color="white" stop-opacity="0.59"/>
</radialGradient>
<linearGradient id="paint2_linear" x1="10.5" y1="11" x2="14" y2="13" gradientUnits="userSpaceOnUse">
<stop stop-color="white" stop-opacity="0"/>
<stop offset="1" stop-color="white" stop-opacity="0.46"/>
</linearGradient>
<linearGradient id="paint3_linear" x1="10.5" y1="15" x2="14" y2="17" gradientUnits="userSpaceOnUse">
<stop stop-color="white" stop-opacity="0.16"/>
<stop offset="1" stop-color="white" stop-opacity="0.46"/>
</linearGradient>
<linearGradient id="paint4_linear" x1="10.5" y1="19" x2="14" y2="21" gradientUnits="userSpaceOnUse">
<stop stop-color="white"/>
<stop offset="1" stop-color="white" stop-opacity="0.46"/>
</linearGradient>
<linearGradient id="paint5_linear" x1="20.5" y1="11" x2="24" y2="13" gradientUnits="userSpaceOnUse">
<stop stop-color="white" stop-opacity="0.12"/>
<stop offset="1" stop-color="white" stop-opacity="0.46"/>
</linearGradient>
<linearGradient id="paint6_linear" x1="20.5" y1="15" x2="24" y2="17" gradientUnits="userSpaceOnUse">
<stop stop-color="white"/>
<stop offset="1" stop-color="white" stop-opacity="0.46"/>
</linearGradient>
<linearGradient id="paint7_linear" x1="20.5" y1="19" x2="24" y2="21" gradientUnits="userSpaceOnUse">
<stop stop-color="white"/>
<stop offset="1" stop-color="white" stop-opacity="0.46"/>
</linearGradient>
<linearGradient id="paint8_linear" x1="15.5" y1="11" x2="19" y2="13" gradientUnits="userSpaceOnUse">
<stop stop-color="white" stop-opacity="0.16"/>
<stop offset="1" stop-color="white" stop-opacity="0.46"/>
</linearGradient>
<linearGradient id="paint9_linear" x1="15.5" y1="15" x2="19" y2="17" gradientUnits="userSpaceOnUse">
<stop stop-color="white" stop-opacity="0.69"/>
<stop offset="1" stop-color="white" stop-opacity="0.46"/>
</linearGradient>
<linearGradient id="paint10_linear" x1="15.5" y1="19" x2="19" y2="21" gradientUnits="userSpaceOnUse">
<stop stop-color="white" stop-opacity="0"/>
<stop offset="1" stop-color="white" stop-opacity="0.46"/>
</linearGradient>
</defs>
</svg>
