<svg width="29" height="27" viewBox="0 0 29 27" fill="none" xmlns="http://www.w3.org/2000/svg">
<rect x="5.62073" y="0.581055" width="23" height="23" rx="1" transform="rotate(7.59433 5.62073 0.581055)" fill="url(#paint0_linear)"/>
<g filter="url(#filter0_b)">
<rect y="4" width="23" height="23" rx="3" fill="url(#paint1_radial)"/>
</g>
<rect x="3" y="9" width="17" height="2" rx="1" fill="url(#paint2_linear)"/>
<rect x="3" y="12" width="10" height="2" rx="1" fill="url(#paint3_linear)"/>
<rect x="3" y="15" width="12" height="2" rx="1" fill="url(#paint4_linear)"/>
<rect x="3" y="18" width="15" height="2" rx="1" fill="url(#paint5_linear)"/>
<rect x="3" y="21" width="8" height="2" rx="1" fill="url(#paint6_linear)"/>
<defs>
<filter id="filter0_b" x="-4" y="0" width="31" height="31" filterUnits="userSpaceOnUse" color-interpolation-filters="sRGB">
<feFlood flood-opacity="0" result="BackgroundImageFix"/>
<feGaussianBlur in="BackgroundImage" stdDeviation="2"/>
<feComposite in2="SourceAlpha" operator="in" result="effect1_backgroundBlur"/>
<feBlend mode="normal" in="SourceGraphic" in2="effect1_backgroundBlur" result="shape"/>
</filter>
<linearGradient id="paint0_linear" x1="3.62073" y1="0.581055" x2="30.6207" y2="25.5811" gradientUnits="userSpaceOnUse">
<stop stop-color="#FF9C06"/>
<stop offset="1" stop-color="#F81E00"/>
</linearGradient>
<radialGradient id="paint1_radial" cx="0" cy="0" r="1" gradientUnits="userSpaceOnUse" gradientTransform="translate(2.73809 15.5) rotate(34.4027) scale(30.5307 45.5506)">
<stop stop-color="#DCDCDC" stop-opacity="0.15"/>
<stop offset="0.477411" stop-color="#EFEFEF" stop-opacity="0.383804"/>
<stop offset="1" stop-color="white" stop-opacity="0.59"/>
</radialGradient>
<linearGradient id="paint2_linear" x1="0.5" y1="11" x2="27.6016" y2="15.4348" gradientUnits="userSpaceOnUse">
<stop stop-color="white"/>
<stop offset="1" stop-color="white" stop-opacity="0"/>
</linearGradient>
<linearGradient id="paint3_linear" x1="1.52941" y1="14" x2="17.7481" y2="15.5612" gradientUnits="userSpaceOnUse">
<stop stop-color="white"/>
<stop offset="1" stop-color="white" stop-opacity="0"/>
</linearGradient>
<linearGradient id="paint4_linear" x1="1.23529" y1="17" x2="20.6194" y2="19.239" gradientUnits="userSpaceOnUse">
<stop stop-color="white"/>
<stop offset="1" stop-color="white" stop-opacity="0"/>
</linearGradient>
<linearGradient id="paint5_linear" x1="0.794118" y1="20" x2="24.8462" y2="23.4728" gradientUnits="userSpaceOnUse">
<stop stop-color="white"/>
<stop offset="1" stop-color="white" stop-opacity="0"/>
</linearGradient>
<linearGradient id="paint6_linear" x1="1.82353" y1="23" x2="14.8415" y2="24.0025" gradientUnits="userSpaceOnUse">
<stop stop-color="white"/>
<stop offset="1" stop-color="white" stop-opacity="0"/>
</linearGradient>
</defs>
</svg>
