<svg width="25" height="25" viewBox="0 0 25 25" fill="none" xmlns="http://www.w3.org/2000/svg">
<rect y="5.40549" width="20" height="20" rx="6" transform="rotate(-15.6805 0 5.40549)" fill="url(#paint0_linear)"/>
<g filter="url(#filter0_b)">
<rect x="5" y="4.99997" width="20" height="20" rx="7" fill="url(#paint1_radial)"/>
</g>
<mask id="path-3-inside-1" fill="white">
<path d="M15 7.99997C11.1325 7.99997 8 11.1342 8 15C8 18.0934 10.0055 20.7166 12.7862 21.6412C13.1363 21.7071 13.2646 21.4907 13.2646 21.3046C13.2646 21.1384 13.2587 20.698 13.2558 20.1146C11.3087 20.537 10.898 19.1755 10.898 19.1755C10.5795 18.3676 10.1192 18.1517 10.1192 18.1517C9.48517 17.7177 10.1682 17.7265 10.1682 17.7265C10.8712 17.7755 11.2404 18.4475 11.2404 18.4475C11.8646 19.5179 12.879 19.2087 13.2792 19.0296C13.3422 18.577 13.5224 18.2684 13.7225 18.0934C12.1679 17.9184 10.534 17.3164 10.534 14.6342C10.534 13.8701 10.8052 13.2459 11.2544 12.7559C11.1757 12.5791 10.9394 11.8675 11.3157 10.9032C11.3157 10.9032 11.9019 10.7154 13.2407 11.6207C13.8007 11.465 14.3957 11.388 14.9907 11.3845C15.5857 11.388 16.1807 11.465 16.7407 11.6207C18.0707 10.7154 18.6569 10.9032 18.6569 10.9032C19.0332 11.8675 18.7969 12.5791 18.7269 12.7559C19.1732 13.2459 19.4444 13.8701 19.4444 14.6342C19.4444 17.3234 17.8082 17.9155 16.2507 18.0876C16.4957 18.2976 16.7232 18.7269 16.7232 19.3826C16.7232 20.3194 16.7144 21.0719 16.7144 21.2994C16.7144 21.4831 16.8369 21.7019 17.1957 21.6319C19.9962 20.7137 22 18.0887 22 15C22 11.1342 18.8657 7.99997 15 7.99997Z"/>
</mask>
<path d="M12.7862 21.6412L12.4707 22.5901L12.5348 22.6114L12.6012 22.6239L12.7862 21.6412ZM13.2558 20.1146L14.2558 20.1096L14.2497 18.8758L13.0439 19.1374L13.2558 20.1146ZM10.898 19.1755L11.8554 18.8867L11.8435 18.8471L11.8283 18.8087L10.898 19.1755ZM10.1192 18.1517L9.55443 18.9769L9.6213 19.0227L9.69467 19.0571L10.1192 18.1517ZM10.1682 17.7265L10.2378 16.7289L10.2095 16.7269L10.1811 16.7266L10.1682 17.7265ZM11.2404 18.4475L10.364 18.929L10.3701 18.9402L10.3766 18.9512L11.2404 18.4475ZM13.2792 19.0296L13.6876 19.9424L14.1933 19.7161L14.2696 19.1675L13.2792 19.0296ZM13.7225 18.0934L14.3808 18.8461L16.0876 17.3533L13.8344 17.0997L13.7225 18.0934ZM11.2544 12.7559L11.9916 13.4316L12.4348 12.9481L12.1679 12.3489L11.2544 12.7559ZM11.3157 10.9032L11.0105 9.95091L10.5571 10.0962L10.3841 10.5397L11.3157 10.9032ZM13.2407 11.6207L12.6805 12.4491L13.0633 12.708L13.5086 12.5842L13.2407 11.6207ZM14.9907 11.3845L14.9965 10.3844L14.9848 10.3845L14.9907 11.3845ZM16.7407 11.6207L16.4727 12.5842L16.9198 12.7085L17.3034 12.4474L16.7407 11.6207ZM18.6569 10.9032L19.5885 10.5397L19.4154 10.0962L18.962 9.95091L18.6569 10.9032ZM18.7269 12.7559L17.7972 12.3877L17.5674 12.9679L17.9876 13.4292L18.7269 12.7559ZM16.2507 18.0876L16.1408 17.0936L13.8498 17.3467L15.5999 18.8468L16.2507 18.0876ZM17.1957 21.6319L17.3872 22.6134L17.4482 22.6015L17.5072 22.5821L17.1957 21.6319ZM15 6.99997C10.5801 6.99997 7 10.5821 7 15H9C9 11.6863 11.6849 8.99997 15 8.99997V6.99997ZM7 15C7 18.5367 9.29334 21.5337 12.4707 22.5901L13.1018 20.6923C10.7177 19.8996 9 17.6501 9 15H7ZM12.6012 22.6239C13.0032 22.6997 13.4672 22.6374 13.8303 22.3065C14.163 22.0032 14.2646 21.605 14.2646 21.3046H12.2646C12.2646 21.1903 12.302 20.9934 12.483 20.8284C12.6944 20.6357 12.9193 20.6487 12.9713 20.6585L12.6012 22.6239ZM14.2646 21.3046C14.2646 21.1392 14.2586 20.675 14.2558 20.1096L12.2558 20.1196C12.2589 20.721 12.2646 21.1376 12.2646 21.3046H14.2646ZM13.0439 19.1374C12.3341 19.2913 12.0678 19.1024 11.9859 19.0343C11.9244 18.9833 11.8847 18.9273 11.8616 18.8868C11.8504 18.8671 11.8448 18.854 11.8437 18.8515C11.8433 18.8504 11.8441 18.8523 11.8461 18.8578C11.8471 18.8606 11.8483 18.8644 11.8499 18.8691C11.8507 18.8715 11.8515 18.8742 11.8524 18.8771C11.8529 18.8786 11.8534 18.8801 11.8539 18.8817C11.8541 18.8825 11.8544 18.8833 11.8546 18.8841C11.8547 18.8846 11.8549 18.8852 11.855 18.8854C11.8552 18.886 11.8554 18.8867 10.898 19.1755C9.9406 19.4642 9.9408 19.4649 9.941 19.4656C9.94107 19.4658 9.94128 19.4665 9.94142 19.4669C9.9417 19.4678 9.94198 19.4688 9.94228 19.4698C9.94287 19.4717 9.9435 19.4737 9.94417 19.4758C9.94549 19.48 9.94696 19.4846 9.94858 19.4896C9.9518 19.4995 9.95563 19.5108 9.9601 19.5235C9.96903 19.5488 9.98058 19.5795 9.99515 19.6148C10.0242 19.6851 10.0659 19.775 10.1236 19.8764C10.2384 20.078 10.423 20.336 10.7076 20.5725C11.3178 21.0796 12.2304 21.3603 13.4678 21.0919L13.0439 19.1374ZM11.8283 18.8087C11.6183 18.2761 11.3473 17.9046 11.0965 17.6537C10.9723 17.5295 10.8563 17.4379 10.76 17.3722C10.7119 17.3394 10.6689 17.3131 10.6324 17.2924C10.6142 17.2821 10.5976 17.2732 10.5827 17.2655C10.5753 17.2617 10.5684 17.2582 10.5619 17.255C10.5586 17.2534 10.5555 17.2519 10.5525 17.2504C10.551 17.2497 10.5495 17.249 10.5481 17.2483C10.5473 17.248 10.5466 17.2476 10.5459 17.2473C10.5456 17.2471 10.545 17.2469 10.5449 17.2468C10.5444 17.2466 10.5438 17.2463 10.1192 18.1517C9.69467 19.0571 9.69415 19.0569 9.69364 19.0566C9.69347 19.0565 9.69295 19.0563 9.69261 19.0561C9.69194 19.0558 9.69126 19.0555 9.6906 19.0552C9.68927 19.0546 9.68796 19.0539 9.68668 19.0533C9.68411 19.0521 9.68165 19.0509 9.67928 19.0497C9.67455 19.0474 9.67021 19.0452 9.66625 19.0432C9.65832 19.0391 9.65189 19.0356 9.64685 19.0327C9.63677 19.027 9.63221 19.0239 9.63227 19.0239C9.63232 19.024 9.63705 19.0272 9.64556 19.0342C9.65406 19.0412 9.66648 19.0521 9.68191 19.0676C9.74082 19.1265 9.85915 19.2669 9.96768 19.5422L11.8283 18.8087ZM10.6841 17.3265C10.6347 17.2927 10.6268 17.2824 10.6404 17.2957C10.6468 17.3021 10.7232 17.3755 10.7823 17.517C10.8143 17.5938 10.8452 17.7003 10.8492 17.83C10.8533 17.9638 10.828 18.1002 10.772 18.2279C10.6631 18.4763 10.4826 18.5988 10.4005 18.6455C10.3139 18.6948 10.245 18.7126 10.2248 18.7175C10.1986 18.724 10.1827 18.7257 10.1809 18.7259C10.1774 18.7263 10.1759 18.7263 10.175 18.7263C10.1741 18.7264 10.1723 18.7264 10.1694 18.7264C10.1679 18.7265 10.166 18.7265 10.1637 18.7265C10.1626 18.7265 10.1613 18.7264 10.1599 18.7264C10.1592 18.7264 10.1585 18.7264 10.1578 18.7264C10.1574 18.7264 10.157 18.7264 10.1566 18.7264C10.1564 18.7264 10.1561 18.7264 10.156 18.7264C10.1557 18.7264 10.1554 18.7264 10.1682 17.7265C10.1811 16.7266 10.1808 16.7265 10.1804 16.7265C10.1803 16.7265 10.18 16.7265 10.1798 16.7265C10.1794 16.7265 10.1789 16.7265 10.1785 16.7265C10.1776 16.7265 10.1766 16.7265 10.1756 16.7265C10.1736 16.7265 10.1713 16.7265 10.1689 16.7265C10.1641 16.7264 10.1584 16.7265 10.1521 16.7265C10.1395 16.7266 10.1236 16.7269 10.1053 16.7275C10.0695 16.7288 10.0196 16.7315 9.96197 16.7379C9.88639 16.7462 9.64591 16.7738 9.41147 16.9072C9.28363 16.9799 9.06722 17.1352 8.94021 17.425C8.7995 17.7461 8.84188 18.0605 8.93655 18.2873C9.0842 18.6411 9.38747 18.8627 9.55443 18.9769L10.6841 17.3265ZM10.0987 18.724C10.1335 18.7265 10.1917 18.7459 10.273 18.8244C10.3103 18.8604 10.3396 18.8972 10.3583 18.9234C10.3672 18.9358 10.3724 18.944 10.3736 18.946C10.3742 18.947 10.3737 18.9462 10.3722 18.9435C10.3714 18.9422 10.3703 18.9403 10.3689 18.9379C10.3683 18.9367 10.3675 18.9354 10.3667 18.9339C10.3663 18.9332 10.3659 18.9324 10.3654 18.9316C10.3652 18.9312 10.365 18.9308 10.3647 18.9303C10.3646 18.9301 10.3644 18.9298 10.3644 18.9297C10.3642 18.9294 10.364 18.929 11.2404 18.4475C12.1168 17.9659 12.1166 17.9656 12.1165 17.9652C12.1164 17.9651 12.1162 17.9648 12.1161 17.9645C12.1158 17.9641 12.1156 17.9636 12.1153 17.9631C12.1148 17.9621 12.1142 17.9611 12.1136 17.9601C12.1124 17.9579 12.1111 17.9556 12.1097 17.9532C12.1069 17.9482 12.1037 17.9426 12.1 17.9363C12.0927 17.9237 12.0836 17.9085 12.0727 17.891C12.051 17.856 12.0219 17.8113 11.9851 17.76C11.9127 17.6587 11.8058 17.5244 11.6629 17.3863C11.3838 17.1166 10.9059 16.7755 10.2378 16.7289L10.0987 18.724ZM10.3766 18.9512C10.8559 19.7733 11.5584 20.1409 12.2547 20.2031C12.8821 20.2592 13.4196 20.0624 13.6876 19.9424L12.8707 18.1169C12.7386 18.176 12.5688 18.2232 12.4329 18.2111C12.3776 18.2061 12.3358 18.1922 12.2978 18.1683C12.2604 18.1448 12.1883 18.0879 12.1043 17.9437L10.3766 18.9512ZM14.2696 19.1675C14.3058 18.9078 14.3935 18.8351 14.3808 18.8461L13.0642 17.3407C12.6514 17.7017 12.3786 18.2461 12.2887 18.8918L14.2696 19.1675ZM13.8344 17.0997C13.1163 17.0188 12.5623 16.8531 12.1894 16.5391C11.8646 16.2655 11.534 15.7564 11.534 14.6342H9.534C9.534 16.1942 10.0204 17.3271 10.9011 18.0689C11.7339 18.7702 12.7741 18.9929 13.6106 19.0871L13.8344 17.0997ZM11.534 14.6342C11.534 14.1292 11.7053 13.7439 11.9916 13.4316L10.5173 12.0802C9.90519 12.7479 9.534 13.6109 9.534 14.6342H11.534ZM12.1679 12.3489C12.1702 12.3543 11.9903 11.9253 12.2473 11.2667L10.3841 10.5397C9.88853 11.8097 10.1811 12.804 10.341 13.1629L12.1679 12.3489ZM11.3157 10.9032C11.6208 11.8555 11.6198 11.8558 11.6189 11.8561C11.6186 11.8562 11.6176 11.8565 11.617 11.8567C11.6157 11.8571 11.6144 11.8575 11.6132 11.8579C11.6107 11.8587 11.6082 11.8595 11.6058 11.8602C11.6009 11.8617 11.5961 11.8631 11.5915 11.8644C11.5822 11.8671 11.5733 11.8694 11.565 11.8715C11.5484 11.8757 11.5337 11.8787 11.5212 11.881C11.4961 11.8855 11.4801 11.8867 11.4738 11.887C11.4606 11.8876 11.491 11.8843 11.5698 11.9009C11.729 11.9345 12.0915 12.0508 12.6805 12.4491L13.8009 10.7924C13.0511 10.2853 12.4511 10.0428 11.9825 9.944C11.7474 9.89441 11.5476 9.88153 11.3826 9.88906C11.3004 9.89281 11.2281 9.90157 11.1657 9.91284C11.1346 9.91847 11.106 9.92469 11.0801 9.93117C11.0672 9.9344 11.0549 9.93769 11.0433 9.941C11.0375 9.94265 11.0319 9.94431 11.0264 9.94596C11.0237 9.94679 11.021 9.94762 11.0184 9.94844C11.017 9.94885 11.0157 9.94926 11.0144 9.94967C11.0138 9.94988 11.0128 9.95019 11.0125 9.95029C11.0115 9.9506 11.0105 9.95091 11.3157 10.9032ZM13.5086 12.5842C13.9759 12.4542 14.4822 12.3875 14.9965 12.3845L14.9848 10.3845C14.3091 10.3885 13.6254 10.4758 12.9727 10.6573L13.5086 12.5842ZM14.9848 12.3845C15.4991 12.3875 16.0054 12.4542 16.4727 12.5842L17.0086 10.6573C16.3559 10.4758 15.6722 10.3885 14.9965 10.3845L14.9848 12.3845ZM17.3034 12.4474C17.8875 12.0497 18.2473 11.9341 18.4046 11.9008C18.4825 11.8843 18.5124 11.8876 18.4989 11.887C18.4924 11.8867 18.4763 11.8855 18.4512 11.881C18.4387 11.8787 18.4241 11.8756 18.4075 11.8715C18.3991 11.8694 18.3903 11.867 18.3811 11.8644C18.3764 11.8631 18.3717 11.8617 18.3668 11.8602C18.3643 11.8595 18.3619 11.8587 18.3594 11.8579C18.3581 11.8575 18.3569 11.8571 18.3556 11.8567C18.355 11.8565 18.354 11.8562 18.3537 11.8561C18.3528 11.8558 18.3518 11.8555 18.6569 10.9032C18.962 9.95091 18.9611 9.9506 18.9601 9.95029C18.9598 9.95019 18.9588 9.94988 18.9582 9.94968C18.9569 9.94927 18.9556 9.94886 18.9542 9.94844C18.9516 9.94762 18.9489 9.9468 18.9462 9.94597C18.9407 9.94432 18.9351 9.94267 18.9293 9.94102C18.9177 9.93772 18.9055 9.93443 18.8926 9.93119C18.8667 9.92472 18.8382 9.9185 18.807 9.91287C18.7447 9.90159 18.6724 9.89282 18.5902 9.88906C18.4252 9.88152 18.2254 9.89442 17.9905 9.94414C17.5222 10.0433 16.9238 10.2864 16.178 10.7941L17.3034 12.4474ZM17.7253 11.2667C17.9799 11.9192 17.8095 12.3565 17.7972 12.3877L19.6567 13.1241C19.7843 12.8018 20.0864 11.8158 19.5885 10.5397L17.7253 11.2667ZM17.9876 13.4292C18.2728 13.7425 18.4444 14.1289 18.4444 14.6342H20.4444C20.4444 13.6112 20.0735 12.7493 19.4663 12.0826L17.9876 13.4292ZM18.4444 14.6342C18.4444 15.7604 18.1131 16.2672 17.7895 16.5382C17.4169 16.8503 16.8626 17.0139 16.1408 17.0936L16.3605 19.0815C17.1963 18.9892 18.2388 18.7707 19.0737 18.0714C19.9577 17.3311 20.4444 16.1972 20.4444 14.6342H18.4444ZM15.5999 18.8468C15.5751 18.8256 15.7232 18.9488 15.7232 19.3826H17.7232C17.7232 18.5049 17.4162 17.7695 16.9015 17.3283L15.5999 18.8468ZM15.7232 19.3826C15.7232 19.8479 15.721 20.2679 15.7188 20.6004C15.7167 20.9285 15.7144 21.1813 15.7144 21.2994H17.7144C17.7144 21.19 17.7165 20.9528 17.7188 20.6135C17.721 20.2787 17.7232 19.854 17.7232 19.3826H15.7232ZM15.7144 21.2994C15.7144 21.5883 15.8084 21.9908 16.1462 22.2993C16.5162 22.6371 16.9876 22.6913 17.3872 22.6134L17.0042 20.6504C17.045 20.6424 17.2757 20.6223 17.4948 20.8223C17.6817 20.9929 17.7144 21.1943 17.7144 21.2994H15.7144ZM17.5072 22.5821C20.7073 21.533 23 18.5327 23 15H21C21 17.6448 19.2852 19.8945 16.8841 20.6817L17.5072 22.5821ZM23 15C23 10.5819 19.418 6.99997 15 6.99997V8.99997C18.3135 8.99997 21 11.6865 21 15H23Z" fill="url(#paint2_linear)" mask="url(#path-3-inside-1)"/>
<defs>
<filter id="filter0_b" x="1" y="0.999969" width="28" height="28" filterUnits="userSpaceOnUse" color-interpolation-filters="sRGB">
<feFlood flood-opacity="0" result="BackgroundImageFix"/>
<feGaussianBlur in="BackgroundImage" stdDeviation="2"/>
<feComposite in2="SourceAlpha" operator="in" result="effect1_backgroundBlur"/>
<feBlend mode="normal" in="SourceGraphic" in2="effect1_backgroundBlur" result="shape"/>
</filter>
<linearGradient id="paint0_linear" x1="1.5" y1="4.40549" x2="22" y2="24.4055" gradientUnits="userSpaceOnUse">
<stop stop-color="#161516" stop-opacity="0.67"/>
<stop offset="1" stop-color="#2C2829"/>
</linearGradient>
<radialGradient id="paint1_radial" cx="0" cy="0" r="1" gradientUnits="userSpaceOnUse" gradientTransform="translate(7.38095 15) rotate(34.4027) scale(26.5484 39.6092)">
<stop stop-color="#DCDCDC" stop-opacity="0.15"/>
<stop offset="0.477411" stop-color="#EFEFEF" stop-opacity="0.383804"/>
<stop offset="1" stop-color="white" stop-opacity="0.59"/>
</radialGradient>
<linearGradient id="paint2_linear" x1="3" y1="7.99997" x2="20" y2="24" gradientUnits="userSpaceOnUse">
<stop stop-color="white"/>
<stop offset="1" stop-color="#C4C4C4" stop-opacity="0.16"/>
</linearGradient>
</defs>
</svg>
