<svg width="25" height="26" viewBox="0 0 25 26" fill="none" xmlns="http://www.w3.org/2000/svg">
<path fill-rule="evenodd" clip-rule="evenodd" d="M17.2911 2.71408C16.3602 1.54904 14.7148 1.24471 13.4287 1.99968L6.80079 5.8905C6.04678 6.33313 5.59324 6.99568 5.41092 7.71159C5.21889 8.06848 5.07827 8.46084 5.0006 8.88075L3.72748 15.764C3.32569 17.9363 4.76097 20.023 6.93326 20.4248L16.7665 22.2435C18.9388 22.6453 21.0255 21.21 21.4273 19.0378L22.7004 12.1545C22.7781 11.7346 22.7871 11.3179 22.7354 10.9159C22.8212 10.1822 22.6347 9.40122 22.0889 8.71818L17.2911 2.71408Z" fill="url(#paint0_linear)"/>
<g filter="url(#filter0_b)">
<path fill-rule="evenodd" clip-rule="evenodd" d="M10.964 5.73221C9.83665 4.75593 8.16336 4.75593 7.03604 5.73221L1.22631 10.7636C0.674735 11.2413 0.356797 11.8315 0.238161 12.4422C0.191521 12.6823 0.147547 12.9236 0.0946527 13.1624C0.0326787 13.4422 0 13.733 0 14.0314L0 21.0314C0 23.2405 1.79086 25.0314 4 25.0314H14C16.2091 25.0314 18 23.2405 18 21.0314V14.0314C18 13.733 17.9673 13.4422 17.9053 13.1624C17.8525 12.9236 17.8085 12.6822 17.7618 12.4422C17.6432 11.8315 17.3253 11.2413 16.7737 10.7636L10.964 5.73221Z" fill="url(#paint1_linear)"/>
</g>
<rect x="3" y="19" width="12" height="2" rx="1" fill="url(#paint2_linear)" fill-opacity="0.65"/>
<defs>
<filter id="filter0_b" x="-4" y="1" width="26" height="28.0314" filterUnits="userSpaceOnUse" color-interpolation-filters="sRGB">
<feFlood flood-opacity="0" result="BackgroundImageFix"/>
<feGaussianBlur in="BackgroundImage" stdDeviation="2"/>
<feComposite in2="SourceAlpha" operator="in" result="effect1_backgroundBlur"/>
<feBlend mode="normal" in="SourceGraphic" in2="effect1_backgroundBlur" result="shape"/>
</filter>
<linearGradient id="paint0_linear" x1="22.5" y1="7" x2="11.8499" y2="21.3342" gradientUnits="userSpaceOnUse">
<stop stop-color="#163AF7"/>
<stop offset="1" stop-color="#168BF7" stop-opacity="0.68"/>
</linearGradient>
<linearGradient id="paint1_linear" x1="9" y1="5" x2="9" y2="25.0314" gradientUnits="userSpaceOnUse">
<stop stop-color="#DCDCDC" stop-opacity="0.15"/>
<stop offset="1" stop-color="white"/>
</linearGradient>
<linearGradient id="paint2_linear" x1="9" y1="20" x2="5" y2="21" gradientUnits="userSpaceOnUse">
<stop stop-color="white"/>
<stop offset="1" stop-color="white" stop-opacity="0"/>
</linearGradient>
</defs>
</svg>
