<svg width="25" height="25" viewBox="0 0 25 25" fill="none" xmlns="http://www.w3.org/2000/svg">
<rect y="5.40549" width="20" height="20" rx="6" transform="rotate(-15.6805 0 5.40549)" fill="url(#paint0_linear)"/>
<g filter="url(#filter0_b)">
<rect x="4" y="4" width="20" height="20" rx="7" fill="url(#paint1_radial)"/>
</g>
<path fill-rule="evenodd" clip-rule="evenodd" d="M13.2676 8H10C8.89543 8 8 8.89543 8 10V18C8 19.1046 8.89543 20 10 20H18C19.1046 20 20 19.1046 20 18V14.7324C20.5978 14.3866 21 13.7403 21 13V18C21 19.6569 19.6569 21 18 21H10C8.34315 21 7 19.6569 7 18V10C7 8.34315 8.34315 7 10 7H15C14.2597 7 13.6134 7.4022 13.2676 8Z" fill="url(#paint2_linear)"/>
<path fill-rule="evenodd" clip-rule="evenodd" d="M16.9739 7.55048C16.9739 7.24646 17.2204 7 17.5244 7H20.8273C20.8463 7 20.8651 7.00096 20.8836 7.00284C21.1612 7.03103 21.3778 7.26546 21.3778 7.55048V9.75242C21.3778 10.0564 21.1313 10.3029 20.8273 10.3029C20.5233 10.3029 20.2768 10.0564 20.2768 9.75242V8.50167L15.9397 12.8388C15.7248 13.0537 15.3762 13.0537 15.1612 12.8388C14.9463 12.6238 14.9463 12.2752 15.1612 12.0603L19.1205 8.10097H17.5244C17.2204 8.10097 16.9739 7.85451 16.9739 7.55048Z" fill="url(#paint3_linear)"/>
<defs>
<filter id="filter0_b" x="0" y="0" width="28" height="28" filterUnits="userSpaceOnUse" color-interpolation-filters="sRGB">
<feFlood flood-opacity="0" result="BackgroundImageFix"/>
<feGaussianBlur in="BackgroundImage" stdDeviation="2"/>
<feComposite in2="SourceAlpha" operator="in" result="effect1_backgroundBlur"/>
<feBlend mode="normal" in="SourceGraphic" in2="effect1_backgroundBlur" result="shape"/>
</filter>
<linearGradient id="paint0_linear" x1="1.5" y1="4.40549" x2="22" y2="24.4055" gradientUnits="userSpaceOnUse">
<stop stop-color="#161516" stop-opacity="0.67"/>
<stop offset="1" stop-color="#2C2829"/>
</linearGradient>
<radialGradient id="paint1_radial" cx="0" cy="0" r="1" gradientUnits="userSpaceOnUse" gradientTransform="translate(6.38095 14) rotate(34.4027) scale(26.5484 39.6092)">
<stop stop-color="#DCDCDC" stop-opacity="0.15"/>
<stop offset="0.477411" stop-color="#EFEFEF" stop-opacity="0.383804"/>
<stop offset="1" stop-color="white" stop-opacity="0.59"/>
</radialGradient>
<linearGradient id="paint2_linear" x1="5.25" y1="8.16667" x2="23.3333" y2="23.3333" gradientUnits="userSpaceOnUse">
<stop stop-color="white"/>
<stop offset="1" stop-color="#C4C4C4" stop-opacity="0"/>
</linearGradient>
<linearGradient id="paint3_linear" x1="19.4039" y1="4.79807" x2="15" y2="15.8078" gradientUnits="userSpaceOnUse">
<stop stop-color="white"/>
<stop offset="1" stop-color="#C4C4C4" stop-opacity="0"/>
</linearGradient>
</defs>
</svg>
