<svg width="26" height="24" viewBox="0 0 26 24" fill="none" xmlns="http://www.w3.org/2000/svg">
<path d="M21.7862 2.22764C20.4313 1.84046 17.0651 1.41961 15.6749 1.65002C14.2847 1.88043 12.9631 2.41683 11.8056 3.22043C10.648 4.02404 9.6835 5.07477 8.98167 6.2967C8.27984 7.51863 7.85825 8.88123 7.74738 10.286C7.63652 11.6908 7.83913 13.1026 8.34059 14.4195C8.84205 15.7364 9.62983 16.9255 10.647 17.9007C11.6641 18.8759 12.8852 19.613 14.2221 20.0586C15.5589 20.5043 22.0417 18.5272 23.4405 18.3574L18.064 16.8246C16.8232 15.9974 16.5575 15.9872 15.5825 15.1703C14.9683 14.9655 14.673 14.6371 14.2057 14.189C13.7384 13.741 13.3764 13.1947 13.1461 12.5897C12.9157 11.9846 12.8226 11.336 12.8735 10.6906C12.9244 10.0452 13.1181 9.41913 13.4406 8.85774C13.763 8.29634 15.2933 6.27388 15.8251 5.90467C16.2387 5.46835 16.6523 5.05477 17.4794 4.2276C19.4829 3.22043 19.3047 3.46839 19.8079 3.09882L21.7862 2.22764Z" fill="url(#paint0_linear)"/>
<g filter="url(#filter0_b)">
<rect y="4" width="20" height="20" rx="10" fill="url(#paint1_linear)"/>
</g>
<defs>
<filter id="filter0_b" x="-4" y="0" width="28" height="28" filterUnits="userSpaceOnUse" color-interpolation-filters="sRGB">
<feFlood flood-opacity="0" result="BackgroundImageFix"/>
<feGaussianBlur in="BackgroundImage" stdDeviation="2"/>
<feComposite in2="SourceAlpha" operator="in" result="effect1_backgroundBlur"/>
<feBlend mode="normal" in="SourceGraphic" in2="effect1_backgroundBlur" result="shape"/>
</filter>
<linearGradient id="paint0_linear" x1="6.61066" y1="9.75399" x2="25.3813" y2="12.8534" gradientUnits="userSpaceOnUse">
<stop stop-color="#205E97" stop-opacity="0.67"/>
<stop offset="1" stop-color="#7174C6" stop-opacity="0.15"/>
</linearGradient>
<linearGradient id="paint1_linear" x1="-3.37472e-08" y1="4.95238" x2="17.619" y2="24" gradientUnits="userSpaceOnUse">
<stop stop-color="#DCDCDC" stop-opacity="0.15"/>
<stop offset="1" stop-color="white"/>
</linearGradient>
</defs>
</svg>
