<svg width="21" height="23" viewBox="0 0 21 23" fill="none" xmlns="http://www.w3.org/2000/svg">
<path fill-rule="evenodd" clip-rule="evenodd" d="M5 7H3.75793C3.04919 3.40085 5.80438 0 9.52313 0H12H13.4435C17.3702 0 20.3311 3.56763 19.6074 7.42712C19.5359 7.80823 19.5 8.19513 19.5 8.58286V13.7307C19.5 14.57 19.6509 15.4026 19.9457 16.1885L20.4933 17.6489C20.7385 18.3026 20.2552 19 19.557 19H14.8293C14.9398 19.3128 15 19.6494 15 20C15 21.6569 13.6569 23 12 23C10.3431 23 9 21.6569 9 20C9 19.6494 9.06018 19.3128 9.17071 19H3.61804C2.87463 19 2.39117 18.2177 2.72363 17.5528L3.26099 16.478C3.74701 15.506 4 14.4342 4 13.3475V9H5C5.55231 9 6 8.55228 6 8C6 7.44772 5.55231 7 5 7Z" fill="url(#paint0_linear)"/>
<g filter="url(#filter0_b)">
<circle cx="6" cy="6" r="6" fill="url(#paint1_radial)"/>
</g>
<defs>
<filter id="filter0_b" x="-4" y="-4" width="20" height="20" filterUnits="userSpaceOnUse" color-interpolation-filters="sRGB">
<feFlood flood-opacity="0" result="BackgroundImageFix"/>
<feGaussianBlur in="BackgroundImage" stdDeviation="2"/>
<feComposite in2="SourceAlpha" operator="in" result="effect1_backgroundBlur"/>
<feBlend mode="normal" in="SourceGraphic" in2="effect1_backgroundBlur" result="shape"/>
</filter>
<linearGradient id="paint0_linear" x1="3" y1="1.5" x2="30.5" y2="23" gradientUnits="userSpaceOnUse">
<stop stop-color="#F7921D"/>
<stop offset="0.0001" stop-color="#F7921D" stop-opacity="0.37"/>
<stop offset="1" stop-color="#F38300"/>
</linearGradient>
<radialGradient id="paint1_radial" cx="0" cy="0" r="1" gradientUnits="userSpaceOnUse" gradientTransform="translate(1.42857 6) rotate(34.4027) scale(15.9291 23.7655)">
<stop stop-color="#DCDCDC" stop-opacity="0.15"/>
<stop offset="0.477411" stop-color="#EFEFEF" stop-opacity="0.383804"/>
<stop offset="1" stop-color="white" stop-opacity="0.59"/>
</radialGradient>
</defs>
</svg>
