<svg width="28" height="26" viewBox="0 0 28 26" fill="none" xmlns="http://www.w3.org/2000/svg">
<path fill-rule="evenodd" clip-rule="evenodd" d="M17.0001 1C14.791 1 13.0001 2.79086 13.0001 5V7C13.0001 9.20914 14.791 11 17.0001 11H18.0001C20.2092 11 22.0001 9.20914 22.0001 7V5C22.0001 2.79086 20.2092 1 18.0001 1H17.0001ZM27.2388 18.7905C28.0759 21.0134 26.0745 23 23.6992 23H18.0001H12.301C9.92559 23 7.92425 21.0134 8.76129 18.7905C9.26385 17.4559 10.0004 16.2433 10.929 15.2218C11.8576 14.2004 12.96 13.3901 14.1733 12.8373C15.3865 12.2845 16.6868 12 18.0001 12C19.3133 12 20.6136 12.2845 21.8268 12.8373C23.0401 13.3901 24.1425 14.2004 25.0711 15.2218C25.9997 16.2433 26.7363 17.4559 27.2388 18.7905Z" fill="url(#paint0_linear)"/>
<g filter="url(#filter0_b)">
<rect x="5.75" width="10.35" height="11.5" rx="3" fill="url(#paint1_radial)"/>
<path d="M20 25.3C21.6569 25.3 23.0332 23.9414 22.6771 22.3233C22.5374 21.6885 22.3529 21.0652 22.1246 20.459C21.5467 18.9243 20.6996 17.5298 19.6317 16.3551C18.5639 15.1804 17.2961 14.2486 15.9009 13.6129C14.5056 12.9772 13.0102 12.65 11.5 12.65C9.9898 12.65 8.49438 12.9772 7.09914 13.6129C5.7039 14.2486 4.43615 15.1804 3.36827 16.3551C2.3004 17.5298 1.45331 18.9243 0.875385 20.459C0.647132 21.0652 0.462629 21.6885 0.322922 22.3233C-0.0332272 23.9414 1.34315 25.3 3 25.3L11.5 25.3H20Z" fill="url(#paint2_radial)"/>
</g>
<defs>
<filter id="filter0_b" x="-3.73364" y="-4" width="30.4674" height="33.3" filterUnits="userSpaceOnUse" color-interpolation-filters="sRGB">
<feFlood flood-opacity="0" result="BackgroundImageFix"/>
<feGaussianBlur in="BackgroundImage" stdDeviation="2"/>
<feComposite in2="SourceAlpha" operator="in" result="effect1_backgroundBlur"/>
<feBlend mode="normal" in="SourceGraphic" in2="effect1_backgroundBlur" result="shape"/>
</filter>
<linearGradient id="paint0_linear" x1="9" y1="5" x2="41.5" y2="30" gradientUnits="userSpaceOnUse">
<stop stop-color="#3F69FF"/>
<stop offset="1" stop-color="#5CBFF8"/>
</linearGradient>
<radialGradient id="paint1_radial" cx="0" cy="0" r="1" gradientUnits="userSpaceOnUse" gradientTransform="translate(6.98214 5.75) rotate(37.2664) scale(14.2439 21.9677)">
<stop stop-color="#DCDCDC" stop-opacity="0.15"/>
<stop offset="0.477411" stop-color="#EFEFEF" stop-opacity="0.383804"/>
<stop offset="1" stop-color="white" stop-opacity="0.59"/>
</radialGradient>
<radialGradient id="paint2_radial" cx="0" cy="0" r="1" gradientUnits="userSpaceOnUse" gradientTransform="translate(2.73809 18.975) rotate(20.6379) scale(26.9179 28.4153)">
<stop stop-color="#DCDCDC" stop-opacity="0.15"/>
<stop offset="0.477411" stop-color="#EFEFEF" stop-opacity="0.383804"/>
<stop offset="1" stop-color="white" stop-opacity="0.59"/>
</radialGradient>
</defs>
</svg>
