<svg width="25" height="24" viewBox="0 0 25 24" fill="none" xmlns="http://www.w3.org/2000/svg">
<rect x="0.115234" y="1.96646" width="21" height="21" rx="6" transform="rotate(-5.05731 0.115234 1.96646)" fill="url(#paint0_linear)"/>
<g filter="url(#filter0_b)">
<rect x="6" y="5" width="19" height="19" rx="3" fill="url(#paint1_radial)"/>
</g>
<path fill-rule="evenodd" clip-rule="evenodd" d="M16.7719 10.4569C16.4067 9.17725 14.5932 9.17725 14.228 10.4569C14.0322 11.1433 13.3269 11.5505 12.6345 11.3769C11.3437 11.0534 10.437 12.6239 11.3625 13.58C11.8591 14.0928 11.8591 14.9072 11.3625 15.4201C10.437 16.3761 11.3437 17.9466 12.6345 17.6231C13.3269 17.4495 14.0322 17.8567 14.228 18.5431C14.5932 19.8228 16.4067 19.8228 16.7719 18.5431C16.9677 17.8567 17.6731 17.4495 18.3654 17.6231C19.6562 17.9466 20.563 16.3761 19.6374 15.4201C19.1408 14.9072 19.1408 14.0928 19.6374 13.58C20.563 12.6239 19.6562 11.0534 18.3654 11.3769C17.6731 11.5505 16.9677 11.1433 16.7719 10.4569ZM15.5 16C16.3283 16 17 15.3284 17 14.5C17 13.6716 16.3283 13 15.5 13C14.6716 13 14 13.6716 14 14.5C14 15.3284 14.6716 16 15.5 16Z" fill="url(#paint2_linear)" fill-opacity="0.64"/>
<defs>
<filter id="filter0_b" x="2" y="1" width="27" height="27" filterUnits="userSpaceOnUse" color-interpolation-filters="sRGB">
<feFlood flood-opacity="0" result="BackgroundImageFix"/>
<feGaussianBlur in="BackgroundImage" stdDeviation="2"/>
<feComposite in2="SourceAlpha" operator="in" result="effect1_backgroundBlur"/>
<feBlend mode="normal" in="SourceGraphic" in2="effect1_backgroundBlur" result="shape"/>
</filter>
<linearGradient id="paint0_linear" x1="-0.0906601" y1="2.98582" x2="21.2331" y2="22.9432" gradientUnits="userSpaceOnUse">
<stop stop-color="#8D45C6" stop-opacity="0.72"/>
<stop offset="1" stop-color="#8D45C6"/>
</linearGradient>
<radialGradient id="paint1_radial" cx="0" cy="0" r="1" gradientUnits="userSpaceOnUse" gradientTransform="translate(8.2619 14.5) rotate(34.4027) scale(25.221 37.6288)">
<stop stop-color="#DCDCDC" stop-opacity="0.15"/>
<stop offset="0.477411" stop-color="#EFEFEF" stop-opacity="0.383804"/>
<stop offset="1" stop-color="white" stop-opacity="0.59"/>
</radialGradient>
<linearGradient id="paint2_linear" x1="17.5" y1="11" x2="10.5" y2="20.5" gradientUnits="userSpaceOnUse">
<stop stop-color="white"/>
<stop offset="1" stop-color="white" stop-opacity="0"/>
</linearGradient>
</defs>
</svg>
