<svg width="24" height="22" viewBox="0 0 24 22" fill="none" xmlns="http://www.w3.org/2000/svg">
<rect x="4" y="2" width="20" height="20" rx="5" fill="url(#paint0_linear)"/>
<g filter="url(#filter0_b)">
<rect width="20" height="20" rx="3" fill="url(#paint1_radial)"/>
</g>
<path d="M6.36729 7.40983C7.41129 7.40983 8.33656 6.73758 8.65917 5.74468C9.08121 4.44579 10.9188 4.44579 11.3408 5.74468C11.6634 6.73758 12.5887 7.40983 13.6327 7.40983C14.9984 7.40983 15.5663 9.15748 14.4614 9.96024C13.6168 10.5739 13.2634 11.6616 13.586 12.6545C14.008 13.9534 12.5214 15.0335 11.4165 14.2307C10.5718 13.6171 9.42815 13.6171 8.58354 14.2307C7.47863 15.0335 5.992 13.9534 6.41403 12.6545C6.73665 11.6616 6.38322 10.5739 5.53861 9.96024C4.43371 9.15748 5.00155 7.40983 6.36729 7.40983Z" stroke="url(#paint2_linear)"/>
<defs>
<filter id="filter0_b" x="-4" y="-4" width="28" height="28" filterUnits="userSpaceOnUse" color-interpolation-filters="sRGB">
<feFlood flood-opacity="0" result="BackgroundImageFix"/>
<feGaussianBlur in="BackgroundImage" stdDeviation="2"/>
<feComposite in2="SourceAlpha" operator="in" result="effect1_backgroundBlur"/>
<feBlend mode="normal" in="SourceGraphic" in2="effect1_backgroundBlur" result="shape"/>
</filter>
<linearGradient id="paint0_linear" x1="-11" y1="-4.5" x2="25.5" y2="22" gradientUnits="userSpaceOnUse">
<stop stop-color="#FFF85A"/>
<stop offset="1" stop-color="#FB9600"/>
</linearGradient>
<radialGradient id="paint1_radial" cx="0" cy="0" r="1" gradientUnits="userSpaceOnUse" gradientTransform="translate(2.38095 10) rotate(34.4027) scale(26.5484 39.6092)">
<stop stop-color="#DCDCDC" stop-opacity="0.15"/>
<stop offset="0.477411" stop-color="#EFEFEF" stop-opacity="0.383804"/>
<stop offset="1" stop-color="white" stop-opacity="0.59"/>
</radialGradient>
<linearGradient id="paint2_linear" x1="3" y1="3" x2="13" y2="14.5" gradientUnits="userSpaceOnUse">
<stop stop-color="white"/>
<stop offset="1" stop-color="#EFEFEF" stop-opacity="0.49"/>
</linearGradient>
</defs>
</svg>
