<svg width="24" height="22" viewBox="0 0 24 22" fill="none" xmlns="http://www.w3.org/2000/svg">
<rect x="4" y="2" width="20" height="20" rx="5" fill="url(#paint0_linear)"/>
<g filter="url(#filter0_b)">
<rect width="20" height="20" rx="3" fill="url(#paint1_radial)"/>
</g>
<path d="M8.18364 5.59017C8.75536 3.83062 11.2446 3.83062 11.8164 5.59017V5.59017C12.072 6.37706 12.8053 6.90983 13.6327 6.90983V6.90983C15.4828 6.90983 16.252 9.27729 14.7553 10.3647V10.3647C14.0859 10.8511 13.8058 11.7131 14.0615 12.5V12.5C14.6332 14.2595 12.6193 15.7227 11.1226 14.6353V14.6353C10.4532 14.1489 9.5468 14.1489 8.87743 14.6353V14.6353C7.38067 15.7227 5.36679 14.2595 5.9385 12.5V12.5C6.19418 11.7131 5.91409 10.8511 5.24472 10.3647V10.3647C3.74796 9.27729 4.51719 6.90983 6.36729 6.90983V6.90983C7.19468 6.90983 7.92797 6.37706 8.18364 5.59017V5.59017Z" fill="url(#paint2_linear)"/>
<defs>
<filter id="filter0_b" x="-4" y="-4" width="28" height="28" filterUnits="userSpaceOnUse" color-interpolation-filters="sRGB">
<feFlood flood-opacity="0" result="BackgroundImageFix"/>
<feGaussianBlur in="BackgroundImage" stdDeviation="2"/>
<feComposite in2="SourceAlpha" operator="in" result="effect1_backgroundBlur"/>
<feBlend mode="normal" in="SourceGraphic" in2="effect1_backgroundBlur" result="shape"/>
</filter>
<linearGradient id="paint0_linear" x1="-11" y1="-4.5" x2="25.5" y2="22" gradientUnits="userSpaceOnUse">
<stop stop-color="#FFF85A"/>
<stop offset="1" stop-color="#FB9600"/>
</linearGradient>
<radialGradient id="paint1_radial" cx="0" cy="0" r="1" gradientUnits="userSpaceOnUse" gradientTransform="translate(2.38095 10) rotate(34.4027) scale(26.5484 39.6092)">
<stop stop-color="#DCDCDC" stop-opacity="0.15"/>
<stop offset="0.477411" stop-color="#EFEFEF" stop-opacity="0.383804"/>
<stop offset="1" stop-color="white" stop-opacity="0.59"/>
</radialGradient>
<linearGradient id="paint2_linear" x1="18" y1="18.5" x2="0" y2="0" gradientUnits="userSpaceOnUse">
<stop stop-color="white"/>
<stop offset="1" stop-color="white" stop-opacity="0"/>
</linearGradient>
</defs>
</svg>
